<svg xmlns="http://www.w3.org/2000/svg" width="96" height="96" fill="none">
  <path fill="#007AFF" d="M0 0h96v96H0z"/>
  <path fill="#fff" d="M46.174 16.959c.913-1.278 3.652-1.278 4.382 0-.73 9.677-1.278 16.068-1.278 30.128 13.878 0 20.999-.548 29.763-1.096 1.279.913 1.279 3.652 0 4.383-9.677-.73-16.068-1.278-29.763-1.278 0 14.06.548 20.45 1.278 29.945-.73 1.279-3.469 1.279-4.382 0 .548-8.764.548-16.068.548-29.945-13.878 0-20.268.547-29.763 1.278-1.278-.73-1.278-3.47 0-4.383 8.582.548 15.885 1.096 29.763 1.096 0-14.06 0-21.364-.548-30.128Z"/>
</svg>
