<svg xmlns="http://www.w3.org/2000/svg" width="96" height="48" fill="#161616">
  <path d="M57.659 47.628c-.649.031-2.47.463-1.853-1.266 1.822-2.502 5.868-8.802 5.713-11.365-.03-.525-.34-1.111-.988-1.297-.865.216-2.409 1.205-3.613 2.502l-.216-.216c1.142-1.112 3.088-2.78 5.002-3.86 1.452-.804 2.193 1.821 2.255 2.84.123 1.606-1.483 4.355-2.625 6.362 3.551-4.509 8.925-8.801 11.056-9.419 1.914.432 1.883 2.625-1.36 8.06-1.11 1.977-2.377 3.86-2.315 5.003.03.525.278 1.05.895 1.236.989-.34 2.594-1.452 3.737-2.625l.185.216c-1.142 1.111-2.84 2.687-4.786 3.86-.31.185-1.236.093-1.39-.03-.772-.588-1.143-1.823-1.174-2.44-.092-1.267 1.699-3.83 2.78-5.683 2.594-4.447 2.47-5.343 1.76-6.022-1.822.556-6.64 4.324-10.16 9.45-1.05 1.575-2.255 3.613-2.903 4.694Z"/>
  <path d="M55.294 41.575c-1.205 2.162-3.521 3.953-5.652 5.127-1.05.586-2.162 1.235-3.335 1.235-1.483 0-2.996-1.08-3.46-2.44-.339-1.266-.678-3.273 1.545-7.01 1.174-2.1 3.675-4.416 5.744-5.59 1.205-.648 2.502-1.111 3.644-1.111h.031c1.39 0 2.749 1.111 3.181 2.47.34 1.081.402 3.768-1.698 7.32Zm-8.339 4.787c.989.278 2.286.03 3.52-.463 1.73-.865 4.417-6.887 4.232-10.191-.124-1.421-.618-2.317-1.637-2.656-.34-.093-1.204-.463-2.44-.155-2.038 1.267-5.837 6.918-5.466 11.427.34 1.204.957 1.822 1.791 2.038ZM41.131 41.575c-1.204 2.162-3.52 3.953-5.651 5.127-1.05.586-2.162 1.235-3.336 1.235-1.482 0-2.995-1.08-3.458-2.44-.34-1.266-.68-3.273 1.544-7.01 1.173-2.1 3.675-4.416 5.744-5.59 1.204-.648 2.501-1.111 3.644-1.111h.03c1.39 0 2.75 1.111 3.182 2.47.34 1.081.401 3.768-1.699 7.32Zm-8.338 4.787c.988.278 2.285.03 3.52-.463 1.73-.865 4.417-6.887 4.231-10.191-.123-1.421-.617-2.317-1.636-2.656-.34-.093-1.205-.463-2.44-.155-2.038 1.267-5.837 6.918-5.466 11.427.34 1.204.957 1.822 1.79 2.038ZM30.034 35.368h-.123c-1.266-2.532-2.749-3.552-4.602-3.058-1.575.927-1.204 2.595.68 6.61 1.606 3.489 1.637 6.361-.803 7.874-1.297.803-2.563 1.205-4.2 1.205-1.328.03-2.687-.494-3.305-1.514-.679-1.111-.061-3.18 1.73-3.644l.123.093c-.061 1.266.433 2.47 1.328 3.243 1.081.957 2.286 1.204 3.583.68 1.853-.835.772-3.182-.834-7.104-1.699-4.138-1.39-6.362.865-7.38 1.019-.464 2.223-.865 3.52-.834 1.452 0 2.625.277 3.088 1.266.402.895-.247 1.976-1.05 2.563ZM74.922 42.61c-2.285-.031-5.343-.618-6.146-2.502-1.266-3.026 5.127-6.114 10.222-9.728-.278 0-.556-.03-.617-.092-1.513-1.143-1.42-4.725-.186-7.72 2.008-4.911 7.783-8.03 10.47-8.03 1.513 0 2.007.37 3.89 2.594a87.847 87.847 0 0 0 2.657-2.347l.216.123c-.989 1.174-1.946 2.44-2.718 3.644-7.195 11.427-5.559 16.677-7.473 19.827-1.606 2.748-6.393 4.293-10.315 4.23Zm4.694-12.384c-4.972 3.551-9.45 6.547-8.184 9.635.741 1.76 2.81 2.44 5.034 2.44 2.193 0 4.478-1.205 6.084-3.49 2.007-3.057 1.08-8.894 6.392-17.417-2.84 2.903-7.01 6.886-9.326 8.832Zm.772-1.42c1.699-1.143 7.443-6.177 10.562-10.254-2.07-2.532-2.78-3.273-4.015-3.273-2.162 0-5.28 3.12-6.454 6.887-.958 3.057-1.02 5.558-.093 6.64Z"/>
  <path d="M61.203 30.257c-.649.03-2.471.463-1.853-1.266 1.822-2.502 5.867-8.802 5.713-11.365-.031-.525-.34-1.112-.989-1.297-.864.216-2.408 1.204-3.613 2.501l-.216-.216c1.143-1.111 3.088-2.78 5.003-3.86 1.451-.803 2.193 1.822 2.254 2.841.124 1.606-1.482 4.355-2.624 6.362 3.55-4.509 8.924-8.802 11.055-9.42 1.915.433 1.884 2.626-1.359 8.061-1.111 1.977-2.377 3.86-2.316 5.003.031.525.278 1.05.896 1.235.988-.34 2.594-1.451 3.737-2.625l.185.216c-1.143 1.112-2.841 2.687-4.787 3.86-.309.186-1.235.093-1.39-.03-.772-.587-1.142-1.822-1.173-2.44-.093-1.266 1.698-3.83 2.78-5.682 2.594-4.447 2.47-5.343 1.76-6.022-1.822.556-6.64 4.323-10.16 9.45-1.05 1.575-2.255 3.613-2.903 4.694Z"/>
  <path d="M60.84 17.101c0 1.235-2.254 3.891-3.335 5.652-1.204 1.945-2.563 3.86-2.501 5.002.03.525.71.958 1.328 1.143.988-.34 2.563-1.513 3.705-2.687l.186.216c-1.143 1.112-2.841 2.687-4.787 3.86-.309.186-1.544.093-1.699-.03-.772-.587-1.235-1.668-1.266-2.285-.092-1.267 1.668-3.83 2.81-5.714 1.668-2.686 2.656-3.922 2.934-4.94.155-.588-.463-1.267-.926-1.36-.741.248-2.687 1.575-3.83 2.594l-.216-.154c1.112-1.08 3.52-2.903 5.096-3.86.37-.216.741-.216 1.019-.093.71.34 1.482 1.884 1.482 2.656Zm.31-4.818-.186-.185c2.995-3.057 5.868-6.33 7.442-8.554.433-.494 1.174.03.71.525-1.821 2.1-4.91 5.095-7.967 8.214Z"/>
  <path d="M39.768 25.563a81.754 81.754 0 0 0-2.78 4.694c-1.018 0-2.377.309-1.883-1.297 1.513-2.718 5.435-8.091 5.59-11.735.03-.587-.124-.896-.278-1.112-1.822.556-6.424 4.323-9.944 9.45-1.05 1.575-2.255 3.613-2.903 4.694-.649.03-2.47.463-1.853-1.266 1.822-2.502 5.867-8.802 5.713-11.365-.03-.525-.34-1.112-.988-1.297-.865.216-2.409 1.204-3.613 2.501l-.217-.216c1.143-1.111 3.089-2.78 5.003-3.86 1.452-.803 2.193 1.822 2.255 2.841.123 1.606-1.483 4.355-2.625 6.331 3.551-4.509 8.708-8.77 10.84-9.388 1.698.37 1.45 4.385-1.081 8.709 3.458-4.262 8.647-8.122 10.654-8.71 1.884.433 1.73 2.595-1.482 8.061-1.143 1.977-2.348 3.86-2.286 5.003.031.525.278 1.05.896 1.235.988-.34 2.594-1.451 3.737-2.625l.185.216c-1.143 1.112-2.841 2.687-4.787 3.86-.309.186-1.235.093-1.39-.03-.772-.587-1.142-1.822-1.173-2.44-.093-1.266 1.668-3.83 2.748-5.682 2.564-4.416 2.533-5.312 1.853-5.991-1.853.586-6.948 4.323-10.19 9.419Z"/>
  <path d="M25.204 24.204c-1.204 2.162-3.52 3.953-5.651 5.126-1.05.587-2.162 1.236-3.335 1.236-1.483 0-2.996-1.081-3.46-2.44-.339-1.266-.679-3.274 1.545-7.01 1.173-2.1 3.675-4.416 5.744-5.59 1.204-.649 2.502-1.112 3.644-1.112h.031c1.39 0 2.749 1.112 3.18 2.47.34 1.082.402 3.768-1.698 7.32Zm-8.338 4.787c.988.278 2.285.03 3.52-.463 1.73-.865 4.417-6.887 4.232-10.192-.124-1.42-.618-2.316-1.637-2.655-.34-.093-1.205-.464-2.44-.155-2.038 1.266-5.837 6.918-5.466 11.427.34 1.204.957 1.822 1.791 2.038ZM3.687 30.566c-1.42 0-2.872-.896-3.366-2.347-.34-1.267-.896-3.367 1.327-7.103 1.174-2.1 3.706-4.231 6.486-5.744 1.204-.649 2.378-.958 3.736-.958 1.946 0 2.903.865 2.903 1.977 0 1.05-1.111 1.698-1.79 1.79-.371-1.481-1.298-2.81-3.336-2.81a4.38 4.38 0 0 0-1.359.186c-1.513 1.05-2.841 2.532-3.86 4.23-1.297 2.163-2.038 4.695-1.822 7.166.34 1.204 1.08 1.822 1.915 2.038.988.278 2.501-.031 3.644-.556.803-.37 2.563-1.637 3.551-2.872l.278.154c-1.266 1.513-2.749 2.625-4.385 3.52-1.05.588-2.44 1.329-3.922 1.329ZM46.078.162c.154-.216.617-.216.741 0-.123 1.637-.216 2.718-.216 5.096 2.347 0 3.551-.093 5.034-.186.216.155.216.618 0 .742-1.637-.124-2.718-.217-5.034-.217 0 2.378.093 3.46.216 5.065-.123.216-.587.216-.741 0 .092-1.482.092-2.718.092-5.065-2.346 0-3.427.093-5.033.217-.217-.124-.217-.587 0-.742 1.451.093 2.687.186 5.033.186 0-2.378 0-3.614-.092-5.096Z"/>
</svg>
