<svg xmlns="http://www.w3.org/2000/svg" width="215" height="49" fill="none">
  <path fill="#161616" d="M214.816 24.015c.131 1.038.141 1.808.031 2.31-.082.501-.238.76-.47.776-.232.016-.485-.272-.759-.864-.247-.623-.414-1.557-.502-2.802l-.039-.564c.017-.176.02-.336.01-.481l-.021-.304c-.006-.087.03-.191.109-.313a.578.578 0 0 0 .106-.357 1.43 1.43 0 0 0 .019-.35 1.958 1.958 0 0 1 .044-.614l.132-.62c.134-.155.15-.346.047-.571-.257.076-.424.175-.503.297a4.624 4.624 0 0 0-.963.59c-.275.224-.564.462-.867.716a3.343 3.343 0 0 0-1.078.817 6.172 6.172 0 0 0-.835.539 3.326 3.326 0 0 0-.699.616c-.754.46-1.475.976-2.163 1.548-.66.54-1.335 1.082-2.025 1.625l-.131.01-.497.383a7.09 7.09 0 0 0-.459.294c-.029.002-.057.019-.084.05l-.13.009-.218.015a1.445 1.445 0 0 1-.555.17c-.464.032-.902-.2-1.315-.694a3.087 3.087 0 0 1-.139-.732 4.216 4.216 0 0 1 .03-.831c.344-.897.782-1.714 1.313-2.449.377-.434.74-.866 1.088-1.298.346-.46.677-.935.992-1.422a33.28 33.28 0 0 0 2.085-2.023 34.003 34.003 0 0 1 2.172-2.028c.557-.36 1.1-.717 1.628-1.074.557-.36 1.118-.66 1.683-.903.312-.11.599-.173.86-.191.521-.037.968.107 1.34.43.369.294.504.764.404 1.412-.077.15-.153.316-.227.496l-.144.446c-.13.213-.263.397-.398.552-.136.125-.321.197-.552.213a.97.97 0 0 1-.308-.022c-.593-.163-.84-.567-.739-1.214.045-.178.025-.264-.062-.258a.77.77 0 0 0-.211.102 5.25 5.25 0 0 0-1.783.736c-.528.357-1.027.712-1.497 1.065a17.897 17.897 0 0 0-3.272 3.152 19.868 19.868 0 0 0-2.442 3.793c-.023.09-.06.18-.112.27l-.068.267c-.052.09-.103.196-.153.316s-.028.22.065.301c.062.054.122.079.18.075a.38.38 0 0 0 .17-.056.826.826 0 0 1 .258-.062l.081-.093a.503.503 0 0 0 .124-.096 5.809 5.809 0 0 0 1.767-.952 33.795 33.795 0 0 1 1.619-1.204 48.836 48.836 0 0 0 2.641-2.193 224.79 224.79 0 0 1 2.591-2.276c.22-.19.44-.365.662-.526a2.41 2.41 0 0 1 1.226-.566c.319-.022.572.062.76.253.217.188.338.456.362.804.01.144.005.276-.016.393a1.133 1.133 0 0 0-.019.351.293.293 0 0 0-.112.27.82.82 0 0 1 .061.257l.006.087c-.103.182-.131.416-.081.704a.662.662 0 0 0-.15.36l.031.434a2.246 2.246 0 0 0-.097.487l.033.478.006.086c-.112.474-.082.908.091 1.303a.491.491 0 0 0 .068.345Z"/>
  <path fill="#161616" d="M199.937 24.575a5.034 5.034 0 0 1-1.268-.653 3.999 3.999 0 0 1-.951-1.112 14.722 14.722 0 0 1-.545-.922 36.999 36.999 0 0 1-.505-.97c-.121-.078-.186-.175-.195-.29a1.097 1.097 0 0 0-.03-.435 1.27 1.27 0 0 0-.191-.86c-.008-.116-.027-.172-.056-.17a4.614 4.614 0 0 0-.089-.649 1.777 1.777 0 0 0-.126-.558c-.004-.058-.022-.1-.053-.128l-.115-1.65a.823.823 0 0 1-.264-.025 42.013 42.013 0 0 1-1.915 2.578 24.21 24.21 0 0 0-1.779 2.655 5.145 5.145 0 0 0-.407.422c-.108.123-.197.304-.268.542-.269.31-.538.634-.805.973-.238.337-.461.687-.669 1.05-.215.248-.43.51-.643.787-.216.248-.428.54-.638.874-.41.378-.803.798-1.178 1.26-.348.432-.807.74-1.376.926a1.32 1.32 0 0 1-.388.07c-.8-.205-1.29-.549-1.469-1.031-.21-.51-.341-1.126-.391-1.85l-.022-.303c.077-.151.125-.3.144-.447l-.04-.564-.003-.044c.1-.24.172-.463.215-.67.071-.237.069-.47-.005-.698l.081-.093c.071-.237.128-.46.172-.666.072-.209.1-.444.081-.704.175-.42.248-.832.219-1.237l.084-.05-.093-.08c.233-.424.336-.824.309-1.2l-.003-.044c.071-.238.128-.46.172-.667a1.97 1.97 0 0 0 .082-.704l-.003-.043c.07-.238.142-.461.215-.67.07-.238.098-.472.082-.704.17-.477.242-.904.216-1.28l.119-.795.113-.88.08-.093-.003-.044c.027-.03.038-.09.032-.176.058-.412.18-.755.364-1.03.214-.277.55-.46 1.01-.55.463-.033.82.073 1.07.318.25.244.46.55.631.916a.299.299 0 0 0-.071.223l.09.037c-.367.579-.697 1.27-.99 2.077a9.819 9.819 0 0 0-.503 2.174c-.307.603-.455 1.195-.443 1.776-.231.453-.331.896-.3 1.33l.003.044-.212.713a2.72 2.72 0 0 0-.036.745 1.09 1.09 0 0 0-.075.79l-.038.09a1.714 1.714 0 0 0-.072.835c-.029.002-.043.017-.041.046l.003.044c-.049.12-.084.253-.103.4l.028.39-.081.093.09.038c-.179.361-.19.828-.033 1.399a20.595 20.595 0 0 0 2.918-3.216 50.417 50.417 0 0 0 2.324-3.61c.128-.242.271-.485.429-.728.187-.246.359-.49.516-.735.342-.518.67-1.036.983-1.552.34-.548.697-1.067 1.07-1.559.458-.527.919-.806 1.382-.838.174-.013.351.019.531.093.386.119.635.349.746.69.139.31.249.637.331.98.016.232.019.48.008.742.016.232.062.461.136.689a.484.484 0 0 0 .058.214l.006.087c.002.436.073.824.213 1.164.004.057.02.085.049.083.029-.002.045.012.047.04-.042.236-.026.468.048.696a5.5 5.5 0 0 1 .269.723c.068.14.123.297.164.468l.204.422c.229.363.444.726.644 1.09.229.363.594.584 1.094.666.124.107.29.183.497.227.63.276.907.693.829 1.251-.129.65-.512.996-1.149 1.04l-.261.019a.964.964 0 0 0-.307-.022ZM182.655 26.263c.13 1.038.141 1.808.03 2.31-.081.501-.238.76-.469.776-.232.016-.485-.272-.759-.864-.248-.623-.415-1.557-.502-2.802l-.039-.564c.016-.176.02-.336.01-.481a33.998 33.998 0 0 1-.022-.304c-.006-.087.031-.191.109-.313a.578.578 0 0 0 .106-.357 1.43 1.43 0 0 0 .02-.35 1.9 1.9 0 0 1 .044-.614l.131-.62c.135-.155.151-.346.048-.571-.257.076-.425.175-.504.297a4.642 4.642 0 0 0-.962.59c-.276.224-.565.462-.867.716a3.322 3.322 0 0 0-1.078.817 6.185 6.185 0 0 0-.836.539c-.25.163-.483.368-.699.616-.754.46-1.474.976-2.162 1.548-.661.54-1.336 1.082-2.026 1.625l-.13.01-.497.383a7.124 7.124 0 0 0-.46.294c-.029.002-.057.019-.084.05l-.13.009-.217.015a1.448 1.448 0 0 1-.556.17c-.463.032-.902-.199-1.315-.694a3.037 3.037 0 0 1-.138-.732 4.214 4.214 0 0 1 .029-.831 10.79 10.79 0 0 1 1.313-2.449c.377-.433.74-.866 1.088-1.298.346-.46.677-.935.992-1.422a32.714 32.714 0 0 0 2.085-2.023 34.316 34.316 0 0 1 2.173-2.028 88.544 88.544 0 0 0 1.627-1.074c.557-.359 1.118-.66 1.683-.903.313-.11.6-.173.86-.191.522-.037.968.107 1.34.43.37.294.505.765.405 1.412-.077.15-.153.316-.228.496l-.143.446a4.15 4.15 0 0 1-.398.552c-.137.126-.321.197-.553.213a.964.964 0 0 1-.307-.022c-.593-.162-.84-.567-.74-1.214.046-.178.025-.264-.062-.258a.779.779 0 0 0-.211.102 5.236 5.236 0 0 0-1.782.736c-.528.357-1.027.712-1.497 1.065a17.834 17.834 0 0 0-3.272 3.152 19.868 19.868 0 0 0-2.442 3.794c-.023.088-.06.178-.112.27l-.069.266c-.052.09-.103.196-.152.316-.05.12-.029.22.064.301.062.054.122.079.18.075a.388.388 0 0 0 .171-.056.823.823 0 0 1 .258-.061l.08-.093a.514.514 0 0 0 .125-.096 5.81 5.81 0 0 0 1.767-.953 33.766 33.766 0 0 1 1.618-1.204 48.073 48.073 0 0 0 2.641-2.192c.849-.758 1.713-1.517 2.592-2.276.219-.19.44-.366.661-.527a2.4 2.4 0 0 1 1.227-.566c.318-.022.572.062.76.253.217.188.337.456.362.804.01.144.004.276-.017.394a1.165 1.165 0 0 0-.019.35.293.293 0 0 0-.112.27c.035.085.056.17.062.257l.006.087c-.104.182-.131.417-.082.704a.661.661 0 0 0-.149.36l.03.434c-.048.149-.08.311-.097.487l.034.478.006.087c-.113.473-.082.907.091 1.303a.49.49 0 0 0 .068.344Z"/>
  <path fill="#161616" d="M149.988 30.03a1.666 1.666 0 0 0-.071-.388.752.752 0 0 1 .013-.437 6.84 6.84 0 0 1 .238-1.588 6.829 6.829 0 0 0 .244-1.5c.042-.236.098-.473.169-.71.04-.265.096-.502.169-.711.11-.502.206-1.004.287-1.504l.331-1.507-.018-.26a.967.967 0 0 1 .109-.314c-.018-.26.02-.554.113-.88.094-.327.16-.637.197-.93a1.126 1.126 0 0 0-.061-.87c-.159-.192-.258-.36-.297-.502a3.552 3.552 0 0 1-.083-.562c-.078-.285-.08-.518-.005-.698.073-.209.283-.325.631-.35.227-.073.383-.142.465-.206.081-.093.16-.215.237-.366.027-.438.07-.863.129-1.275a4.16 4.16 0 0 1 .39-1.293c.041-.235.082-.486.122-.75.069-.267.166-.536.293-.806-.01-.145.008-.292.056-.44.048-.15.067-.296.057-.441.208-.771.414-1.571.618-2.4.202-.858.346-1.712.432-2.561-.02-.29.007-.525.082-.704.074-.18.257-.28.546-.3.085-.036.272-.063.562-.083.29-.02.526.035.71.168.213.13.405.38.576.745l.019.261c.016.232 0 .422-.048.57l-.143.447c-.27.31-.479.645-.629 1.004a7.14 7.14 0 0 1-.494 1.039c.01.144.005.29-.014.437.009.116-.058.208-.199.276.002.029-.057.222-.177.58-.094.326-.154.505-.181.536-.023.089-.082.282-.178.58a16.787 16.787 0 0 1-.527 1.826c-.098.268-.173.434-.227.496.014.202-.024.496-.113.88-.061.383-.158.652-.293.807a1.37 1.37 0 0 0-.137.533c-.017.176-.05.338-.097.487a.697.697 0 0 1-.144.446c-.108.124-.081.297.08.518.093.081.143.165.149.252.054-.062.153-.098.298-.108.145-.01.23-.03.257-.062l-.13.01.596-.217c.197-.101.409-.189.637-.263.052-.09.163-.157.335-.198.172-.04.328-.095.469-.163l-.13.009c.169-.07.325-.14.465-.207a6.39 6.39 0 0 1 .463-.251c.139-.097.291-.21.457-.338.194-.13.362-.229.503-.296.174-.013.301-.065.382-.158a1.91 1.91 0 0 1 .335-.198c.085-.035.198-.087.339-.155l.121-.14c.083-.063.152-.112.208-.145a.42.42 0 0 0 .205-.188c.058-.005.1-.022.127-.053.025-.06.067-.092.125-.096.083-.064.178-.158.286-.282a3.65 3.65 0 0 1 .615-.567c.248-.191.483-.368.705-.529a.546.546 0 0 0 .115-.226c.05-.12.191-.188.423-.204l-.007-.087.044-.003c.027-.031.055-.048.084-.05.077-.15.113-.255.109-.313l.13-.009-.009-.13c.087-.006.144-.025.171-.056.025-.06.066-.092.124-.096a.47.47 0 0 1 .106-.356c.11-.095.192-.174.246-.236-.002-.029.01-.059.037-.09l.04-.046.218-.015-.01-.13c.129-.242.273-.47.433-.685.186-.246.385-.522.597-.828a.636.636 0 0 1 .103-.4c.106-.153.182-.303.23-.452.131-.213.23-.453.299-.72.069-.266.165-.55.29-.849a8.721 8.721 0 0 0-.063-1.523 5.115 5.115 0 0 0-.422-1.673l-.983-.935a3.811 3.811 0 0 0-1.103-.796.297.297 0 0 0-.224-.071.545.545 0 0 1-.226-.115c-.839-.349-1.773-.59-2.801-.721a14.047 14.047 0 0 0-2.845-.107 6.734 6.734 0 0 0-.736.095c-.261.019-.52.051-.779.099-.112.066-.269.106-.472.12a1.643 1.643 0 0 0-.515.123c-.178-.046-.252-.07-.223-.072-.087.007-.198.087-.333.242a2.481 2.481 0 0 1-.425.16c-.114.038-.241.09-.382.158a6.7 6.7 0 0 1-.339.155 1.95 1.95 0 0 0-.335.198c-.199.072-.352.17-.46.294a1.08 1.08 0 0 1-.459.294c-.135.155-.272.28-.41.378a.793.793 0 0 0-.237.365.667.667 0 0 1-.463.25c-.115.009-.294-.051-.536-.18-.242-.128-.37-.294-.384-.497a.765.765 0 0 1 .178-.58c.128-.241.276-.412.444-.51.197-.102.406-.233.627-.394.135-.155.259-.25.373-.288.141-.068.325-.139.553-.213l-.13.01c.14-.069.268-.121.381-.158.143-.04.242-.09.296-.152.395-.173.791-.332 1.189-.476a5.053 5.053 0 0 1 1.291-.265c.118.021.221.043.31.066l.261-.018c.058-.004.23-.045.515-.124.178.046.281.068.31.066.029-.002.158-.04.385-.114.089.023.25.026.481.01.145-.01.275-.02.391-.027.143-.04.287-.064.432-.074.26-.018.524.007.791.075.438.028.864.07 1.275.13.441.056.872.186 1.293.39l.435-.031a2.6 2.6 0 0 1 .673.258c.269.098.521.167.757.21a5.759 5.759 0 0 1 2.564 1.697c.724.793 1.101 1.814 1.131 3.063.03.434-.013.86-.129 1.275a4.958 4.958 0 0 1-.399 1.162c.012.174-.076.37-.265.586a3.653 3.653 0 0 1-.532 1.128c-.212.306-.452.614-.722.924l-.242.278c.004.058-.022.104-.078.137-.027.03-.038.075-.034.133l-.131.01a.695.695 0 0 0-.155.272.68.68 0 0 1-.118.183l-.131.009c.004.058-.022.103-.077.136-.027.031-.039.076-.035.134l-.174.012.013.174c-.048.148-.115.24-.199.275a.683.683 0 0 0-.165.143.702.702 0 0 0-.326.328.795.795 0 0 1-.33.285.706.706 0 0 0-.326.328.797.797 0 0 1-.329.285c-.108.124-.331.27-.668.44l.003.043c-.027.03-.072.02-.134-.034.006.086-.033.147-.118.182a.661.661 0 0 0-.164.143l-.131.009.009.13c-.058.004-.099.036-.124.096-.027.031-.084.05-.171.056l.003.043c-.027.031-.071.02-.133-.034-.052.09-.172.245-.361.462-.414.32-.829.625-1.245.916-.39.26-.826.48-1.308.659-.027.03-.055.047-.084.05a.295.295 0 0 1-.211.101c-.141.068-.28.15-.419.248-.11.095-.235.176-.376.244a2.62 2.62 0 0 1-.63.35.878.878 0 0 0-.46.294c.537.602 1.1 1.16 1.689 1.671a95.752 95.752 0 0 1 1.769 1.578c.062.054.154.12.276.2a.932.932 0 0 1 .316.152c.252.273.503.532.753.776.279.243.571.47.877.681a40.692 40.692 0 0 0 2.774 2.207c.978.659 2.022 1.226 3.132 1.701.091.052.197.117.319.196s.257.142.406.19c.027-.031.099-.05.215-.059a.384.384 0 0 1 .176.031l.305-.02c.026-.032.112-.052.257-.063.319-.022.608.162.868.55.169.338.229.567.179.687-.05.12-.214.262-.494.427l-1.564.11c-.174.011-.264-.026-.27-.113a8.99 8.99 0 0 1-2.573-1.217 41.815 41.815 0 0 1-2.257-1.675 26.074 26.074 0 0 0-1.101-.752 9.668 9.668 0 0 1-.979-.892c-1.043-.77-2.089-1.57-3.136-2.4l-3.056-2.491c-.18-.075-.314-.11-.401-.103-.144.01-.242.075-.292.195a2.01 2.01 0 0 0-.149.36 13.643 13.643 0 0 0-.359 1.726 16.76 16.76 0 0 1-.233 1.675 1.02 1.02 0 0 0-.062.354c.035.085.029.201-.019.35a1.003 1.003 0 0 0-.063.354c.035.084.029.201-.019.35-.077.151-.098.269-.063.354.035.084.015.202-.062.353a2.443 2.443 0 0 0-.048.57c.039.144.038.333-.004.569a1.182 1.182 0 0 0-.056.44c.037.114-.015.205-.156.273l.031.434c.014.203.017.45.008.741a1.792 1.792 0 0 1-.206.8c-.054.062-.063.136-.028.22.035.085.057.2.067.345l.019.26c.161.222.172.381.033.478a1.71 1.71 0 0 1-.376.245l-.434.03c-.358-.12-.585-.25-.682-.389-.095-.11-.129-.384-.101-.822ZM138.621 17.994a7.195 7.195 0 0 0-.331 1.506 7.13 7.13 0 0 1-.331 1.508c-.085.442-.156.883-.213 1.324-.056.44-.126.896-.21 1.367l-.128.664a32.35 32.35 0 0 1-.357 1.77 15.124 15.124 0 0 1-.661 2.404 10.2 10.2 0 0 1-.984 2.163c-.394.61-.851.933-1.373.97a1.83 1.83 0 0 1-.974-.195 5.548 5.548 0 0 1-.787-.643 5.708 5.708 0 0 1-.585-.876 9.316 9.316 0 0 1-.409-.844 29.646 29.646 0 0 1-1.153-4.633 24.08 24.08 0 0 1-.291-4.78c.03-.41.122-.75.278-1.023.238-.337.546-.519.922-.545a.812.812 0 0 1 .534.137c.244.158.405.38.483.665.107.283.053.549-.163.797-.344.49-.542.983-.595 1.482a8.588 8.588 0 0 0-.027 1.485 14.84 14.84 0 0 0 .34 2.988c.243.972.516 1.957.818 2.954a5.133 5.133 0 0 0 1.127 1.755c.186.161.366.236.54.224.202-.015.385-.115.546-.3a9.594 9.594 0 0 0 1.167-2.046c.299-.72.538-1.463.717-2.232.314-1.331.528-2.641.642-3.93.114-1.287.241-2.591.381-3.91.063-.354.111-.706.145-1.058.033-.351.068-.688.104-1.01.039-.266.113-.46.221-.584.108-.124.306-.196.596-.216.263.01.414.102.456.274.068.14.123.311.166.512.087.401.158.803.216 1.207l.169 1.166c.07.17-.007.32-.231.453-.084.035-.187.027-.307-.022a.422.422 0 0 1-.192-.249 1.167 1.167 0 0 0-.266-.68ZM127.706 21.68c.02.29.004.48-.048.571l.006.087a29.703 29.703 0 0 1-.656 3.101 80.93 80.93 0 0 1-.914 3.163.386.386 0 0 1-.031.176.506.506 0 0 0-.078.137c.004.058-.008.088-.037.09l-.206.8.158-.23-.261.63.087-.006-.165.142-.333.852.286-.281-.467.818-.15.36a3.04 3.04 0 0 0-.152.316 3.983 3.983 0 0 1-.181.536 1.63 1.63 0 0 1-.268.542l-.077.137a4.307 4.307 0 0 1-.172.666c-.073.21-.16.419-.262.63a2.426 2.426 0 0 1-.37.942l-.038.09a1.334 1.334 0 0 1-.14.49l.28-.369-1.009 2.427a1.1 1.1 0 0 0-.112.27.991.991 0 0 1-.109.313l.006.087-.084.05-.144.446-.143.447-.86 2.678c-.123.329-.285.515-.485.558a.672.672 0 0 1-.255.105c-.087.006-.22-.028-.4-.103-.329-.123-.474-.33-.437-.624-.016-.232.014-.423.091-.574l.449-1.079c.149-.36.3-.704.451-1.035l-.165.142.312-.545c.201-.45.389-.886.563-1.305l.523-1.259c.046-.177.121-.357.225-.539a.746.746 0 0 1 .071-.223l.443-1.166-.041.047.337-.81c.047-.148.094-.312.14-.49.075-.18.15-.344.227-.495.05-.12.085-.24.106-.357.023-.089.059-.193.109-.313a.935.935 0 0 1 .153-.316c-.004-.058.008-.088.037-.09a.701.701 0 0 0 .066-.31c.023-.09.059-.193.109-.313l.003.043.109-.313c.023-.089.047-.163.072-.223.023-.09.06-.179.112-.27l.037-.09c.152-.33.273-.674.365-1.03.116-.415.234-.816.352-1.202.146-.418.277-.834.393-1.25.094-.326.172-.666.234-1.02.092-.355.17-.695.235-1.02l-.156.273a1.431 1.431 0 0 0-.159.23c-.13.212-.247.41-.351.591-.104.182-.221.38-.352.592a65.489 65.489 0 0 1-1.561 2.64 10.5 10.5 0 0 1-1.971 2.408 4.56 4.56 0 0 0-.373.288 1.71 1.71 0 0 1-.376.244c-.304.225-.63.35-.978.374-.55.038-1.019-.22-1.408-.775-.425-.668-.654-1.452-.688-2.352.026-.467.068-1.11.127-1.929.088-.82.219-1.66.392-2.515.2-.887.434-1.703.701-2.45.266-.774.592-1.321.977-1.639.222-.16.463-.25.724-.269.463-.032.808.118 1.035.452.221.246.318.588.291 1.027-.065.324-.251.585-.557.78a2.524 2.524 0 0 0-.727.837 7.237 7.237 0 0 0-.411.989 17.045 17.045 0 0 0-.5 2.217 19.465 19.465 0 0 0-.221 2.46c-.016.612.09 1.084.317 1.417.004.058.022.1.053.128l.003.043c.058-.004.114-.037.168-.099a5.432 5.432 0 0 0 1.323-1.052c.406-.436.794-.929 1.163-1.478.446-.7.862-1.414 1.247-2.139.384-.754.755-1.493 1.112-2.216l.569-1.218c.077-.151.155-.287.234-.41l.23-.452c.05-.12.101-.225.152-.316.081-.093.147-.2.196-.32.177-.39.453-.598.83-.625.232-.016.438.028.62.132a.8.8 0 0 1 .428.494Z"/>
  <path fill="#161616" d="M115.672 30.465c-.478-.17-.9-.388-1.268-.654a3.998 3.998 0 0 1-.951-1.111 14.751 14.751 0 0 1-.545-.922 34.214 34.214 0 0 1-.504-.969c-.122-.079-.187-.176-.195-.292a1.098 1.098 0 0 0-.031-.434 1.27 1.27 0 0 0-.191-.86c-.008-.115-.026-.172-.055-.17a4.766 4.766 0 0 0-.089-.649 1.805 1.805 0 0 0-.127-.558c-.004-.058-.021-.1-.052-.128l-.116-1.65a.814.814 0 0 1-.263-.025 42.028 42.028 0 0 1-1.916 2.578 24.49 24.49 0 0 0-1.779 2.655 5.316 5.316 0 0 0-.407.422c-.108.124-.197.304-.268.542-.269.31-.537.634-.805.973-.238.337-.461.687-.668 1.05-.216.248-.43.51-.644.787a6.851 6.851 0 0 0-.637.874c-.411.378-.803.798-1.178 1.26-.349.433-.807.741-1.376.926a1.328 1.328 0 0 1-.388.071c-.801-.206-1.29-.55-1.47-1.032-.21-.509-.34-1.126-.391-1.85l-.021-.303c.076-.151.124-.3.143-.447l-.04-.564-.002-.044c.1-.24.17-.463.215-.67.07-.237.069-.47-.006-.697l.081-.093c.071-.238.128-.46.172-.667.073-.209.1-.443.082-.704a2.71 2.71 0 0 0 .219-1.237l.084-.05-.093-.08c.232-.424.335-.824.309-1.2l-.003-.044c.07-.238.128-.46.171-.667a1.97 1.97 0 0 0 .082-.704l-.003-.043c.071-.238.142-.461.215-.67a1.97 1.97 0 0 0 .082-.704c.17-.477.242-.904.216-1.28l.119-.794.113-.881.081-.093-.003-.044c.027-.03.037-.09.031-.176.059-.412.18-.755.365-1.03.213-.276.55-.46 1.009-.55.463-.033.82.073 1.07.318.25.244.461.55.632.916a.295.295 0 0 0-.072.223l.09.037c-.367.579-.697 1.271-.99 2.077a9.875 9.875 0 0 0-.503 2.174c-.307.603-.455 1.195-.443 1.776-.23.453-.33.896-.3 1.33l.003.044-.212.713a2.725 2.725 0 0 0-.035.745c-.127.27-.152.534-.076.79l-.037.09c-.096.298-.12.576-.073.835-.029.002-.042.017-.04.046l.003.044c-.05.12-.084.253-.103.4l.027.39-.081.093.09.038c-.178.361-.189.828-.033 1.399a20.603 20.603 0 0 0 2.919-3.216 50.406 50.406 0 0 0 2.323-3.61c.129-.242.272-.484.429-.728.187-.246.359-.49.517-.735.342-.518.669-1.036.983-1.552.34-.548.696-1.067 1.069-1.559.458-.526.919-.806 1.382-.838.174-.013.351.019.531.093.387.119.636.349.747.69.138.31.248.637.33.98.016.233.019.48.008.742.017.232.062.462.136.69a.483.483 0 0 0 .059.213l.006.087c.001.436.072.824.212 1.164.004.058.021.085.05.083.029-.002.044.012.046.04-.042.236-.025.468.049.696.103.225.192.466.269.723.068.14.122.297.163.469l.205.422c.229.362.443.725.643 1.09.229.362.594.583 1.095.665.124.108.289.183.496.227.63.276.907.693.83 1.251-.13.65-.513.996-1.15 1.04l-.261.019a.964.964 0 0 0-.307-.022ZM98.39 32.153c.13 1.038.141 1.809.03 2.31-.08.501-.237.76-.47.776-.23.016-.484-.272-.758-.864-.247-.623-.415-1.557-.502-2.802l-.04-.564c.018-.176.021-.336.01-.481l-.02-.304c-.007-.087.03-.191.109-.313a.579.579 0 0 0 .106-.357c.02-.117.027-.234.019-.35a1.928 1.928 0 0 1 .044-.614l.131-.62c.135-.155.15-.345.048-.571-.257.076-.424.175-.503.297a4.649 4.649 0 0 0-.963.59 63.27 63.27 0 0 0-.867.716 3.33 3.33 0 0 0-1.078.818 6.167 6.167 0 0 0-.836.538c-.25.163-.483.368-.699.616-.753.46-1.474.976-2.162 1.548-.66.54-1.336 1.083-2.025 1.625l-.13.01-.498.383c-.167.1-.32.197-.46.294-.028.002-.056.019-.083.05l-.13.009-.218.015a1.446 1.446 0 0 1-.555.17c-.464.032-.902-.199-1.315-.694a3.04 3.04 0 0 1-.139-.732 4.214 4.214 0 0 1 .03-.831c.344-.897.782-1.713 1.313-2.449.377-.433.74-.866 1.088-1.298.346-.46.676-.935.992-1.422a32.986 32.986 0 0 0 2.085-2.023 34.274 34.274 0 0 1 2.172-2.028c.557-.359 1.1-.717 1.627-1.074.558-.359 1.119-.66 1.684-.903.312-.11.599-.173.86-.191.52-.037.968.107 1.34.43.37.294.504.765.404 1.412-.077.15-.153.316-.227.496l-.144.446c-.13.213-.263.397-.398.552-.137.126-.32.197-.552.213a.968.968 0 0 1-.308-.022c-.593-.162-.84-.567-.74-1.214.046-.178.026-.264-.061-.258a.764.764 0 0 0-.211.102 5.237 5.237 0 0 0-1.783.736c-.528.357-1.027.712-1.497 1.065a17.867 17.867 0 0 0-3.272 3.153 19.865 19.865 0 0 0-2.442 3.793 1.1 1.1 0 0 1-.112.27l-.069.266c-.051.09-.102.196-.152.316s-.028.22.065.301c.062.054.122.079.18.075a.386.386 0 0 0 .17-.056.822.822 0 0 1 .258-.061l.08-.093a.505.505 0 0 0 .125-.096 5.81 5.81 0 0 0 1.767-.953 33.85 33.85 0 0 1 1.619-1.204 48.493 48.493 0 0 0 2.64-2.192c.85-.758 1.714-1.517 2.592-2.276.22-.19.44-.366.662-.527a2.406 2.406 0 0 1 1.227-.566c.318-.022.571.062.76.253.216.188.337.456.36.804.011.145.006.276-.015.394a1.13 1.13 0 0 0-.02.35.293.293 0 0 0-.111.27.82.82 0 0 1 .061.257l.006.087c-.103.182-.13.417-.081.704a.662.662 0 0 0-.15.36l.03.434c-.047.149-.08.311-.096.487l.033.478.006.087c-.112.473-.082.907.091 1.302a.491.491 0 0 0 .068.345ZM65.874 37.088l-.067-.955.118-.183-.052-.128.13-.62c.072-.237.099-.472.083-.704l-.013-.173c-.012-.174-.004-.277.023-.308l.08-.092-.003-.044c.14-.504.269-.95.387-1.336.119-.387.193-.785.222-1.194.179-.362.3-.72.362-1.073.091-.355.154-.709.188-1.06l-.013-.174.04-.047-.005-.086.084-.05c.207-.364.355-.738.445-1.122.118-.387.223-.772.312-1.157.044-.206.09-.384.137-.533a3.27 3.27 0 0 0 .178-.58c.05-.12.114-.24.193-.362s.142-.258.19-.406l.374-.9c.153-.301.292-.602.417-.901a5.45 5.45 0 0 1 .473-.732c.186-.246.395-.377.627-.393.232-.016.41.03.534.138.241.128.37.294.384.496.109.313-.02.773-.384 1.38a16.866 16.866 0 0 0-1.466 2.765 23.702 23.702 0 0 0-1.013 2.995c-.261.425-.388.9-.38 1.423l-.356 1.16a6.62 6.62 0 0 0-.185 1.104l.01.13-.219.626c-.126.27-.21.538-.25.803-.01.263.012.581.068.956l.224 1.337.523-1.259c.056-.033.083-.064.081-.093a.285.285 0 0 1 .121-.14 1.69 1.69 0 0 0 .072-.222c.05-.12.086-.225.11-.314.128-.241.242-.482.342-.722.126-.27.254-.527.382-.768.27-.31.435-.656.495-1.039l.029-.22c.317-.459.589-.943.815-1.454.253-.541.48-1.051.679-1.53.076-.152.152-.317.227-.497.073-.209.162-.39.267-.542.096-.298.197-.523.302-.676.3-.72.613-1.44.94-2.16.327-.75.594-1.511.802-2.282-.002-.03.037-.09.118-.183.135-.155.253-.338.355-.549.157-.244.41-.378.757-.402.232-.016.41.03.534.137.242.129.353.267.334.413.01.145-.034.338-.134.577a.701.701 0 0 0-.066.31l-.04.047c-.172.448-.245.86-.22 1.237a6.358 6.358 0 0 0-.28.98l-.107.968.003.043a1.47 1.47 0 0 0-.122.75c-.077.151-.123.314-.14.49l.033.478c-.142.883-.174 1.67-.096 2.363l.116 1.04.64-.83c-.004-.059.008-.103.035-.134l.121-.14c.253-.133.41-.392.47-.774l.233-.41c.5-.761.968-1.55 1.406-2.367.438-.816.884-1.72 1.338-2.712.378-.434.637-.888.778-1.364a7.16 7.16 0 0 0 1-1.946l.19-.406a.334.334 0 0 1 .126-.053.682.682 0 0 0 .165-.142c.323-.372.587-.565.79-.58a.386.386 0 0 1 .176.032c.089.023.164.047.223.072.482.228.67.637.566 1.226-.047.149-.08.311-.096.487.01.145.007.32-.008.524a.385.385 0 0 1-.03.177.606.606 0 0 0-.026.263l.003.044c-.123.736-.217 1.47-.282 2.202a59.9 59.9 0 0 0-.078 2.013c-.042.235-.069.47-.082.704l.046.651.027.391-.118.183.053.127c-.06.819-.033 1.617.08 2.395.112.778.224 1.54.335 2.29l.045.651c.05.288.02.479-.09.574a.493.493 0 0 0-.162.186l-.13.009c-.059.004-.134-.035-.227-.115a6.855 6.855 0 0 1-.239-.29c-.061-.053-.107-.079-.136-.077l-.093-.08-.043.002-.006-.087c-.007-.086-.025-.143-.056-.17l-.252-3.605c.027-.03.037-.09.031-.177.044-.206.06-.397.047-.57.017-.176.019-.365.004-.568l-.027-.39a3.435 3.435 0 0 0 .107-.969l-.015-.217c.122-.328.141-.679.057-1.051l-.012-.174.04-.046-.002-.044c.041-.235.056-.44.044-.614.017-.176.02-.336.01-.48.102-.211.147-.39.137-.534.017-.176.02-.336.01-.48l-.006-.088c.046-.177.076-.369.091-.573a2.234 2.234 0 0 0-.095-.736l-.154-.949-2.046 3.198a2.998 2.998 0 0 0-.51.821l-.19.406c-.24.308-.451.628-.632.961-.182.304-.32.619-.414.946-.427.553-.684 1.037-.772 1.45a7.791 7.791 0 0 0-.588.958c-.126.27-.252.555-.376.855-.11.095-.204.203-.283.325a2.28 2.28 0 0 1-.234.41 3.459 3.459 0 0 1-.398.551 2.048 2.048 0 0 1-.494.427l-.087.006c-.492.035-.847-.042-1.064-.23-.216-.19-.37-.513-.46-.972l-.064-.912a.386.386 0 0 1 .031-.177.387.387 0 0 0 .031-.177l-.012-.174a.386.386 0 0 0 .032-.176l.068-.267a.78.78 0 0 0 .103-.4 2.02 2.02 0 0 0 .016-.394.67.67 0 0 0 .069-.267.387.387 0 0 0 .031-.176c-.004-.058.009-.088.038-.09l.1-.444c.107-.123.152-.316.134-.576-.01-.145-.093-.285-.248-.42a.773.773 0 0 0-.353-.062c-.261.018-.424.19-.488.514l-.193.363-.106.356c-.106.153-.196.32-.271.5-.077.15-.125.299-.143.446a1.904 1.904 0 0 0-.427.771c.002.03-.024.075-.078.137-.134.155-.22.393-.255.716-.417.698-.68 1.313-.788 1.845a11.02 11.02 0 0 0-1.133 2.523 6.846 6.846 0 0 0-.196.319l-.162.186c-.128.241-.258.469-.389.682-.13.212-.26.44-.389.681-.236.366-.453.6-.65.7-.167.1-.453.163-.859.192-.597-.22-.92-.678-.97-1.373ZM62.805 10.55c.514.69.667 1.422.459 2.193-.117.415-.234.816-.353 1.203-.09.385-.242.7-.457.949l-.13.009A2.554 2.554 0 0 1 61 13.469a3.109 3.109 0 0 1 .03-2.054l.262-.63c.075-.179.18-.346.314-.501.133-.184.257-.28.373-.288.26-.018.536.166.825.553Zm.113 7.236c.37.294.648.74.836 1.338.214.567.288 1.202.22 1.905a22.93 22.93 0 0 1-.113.88c-.012.235.008.524.061.87a7.708 7.708 0 0 0-.142 1.712c.011.58.04 1.204.087 1.87-.042.236-.069.47-.082.704.015.203.06.447.139.732-.03.41-.044.833-.042 1.269.028.405.043.826.044 1.262-.05.12-.026.25.071.388.012.581.022 1.148.032 1.7.038.55.062 1.102.072 1.654a.468.468 0 0 0 .074.43c-.017.177-.032.381-.045.615.014.203.06.432.136.689l-.087.006.015.217c.033.056.038.128.015.217.002.437-.142.665-.432.685-.058.004-.102-.007-.133-.034l-.087.006c-.265-.04-.48-.2-.645-.479a4.566 4.566 0 0 1-.33-.98 8.626 8.626 0 0 0-.115-.385l-.027-.391.043-.003-.006-.087a32.891 32.891 0 0 0-.167-2.389c.1-.24.106-.56.02-.961.048-.15.067-.296.057-.44a5.016 5.016 0 0 0-.086-.606c.068-.266.09-.573.066-.92a11.59 11.59 0 0 0-.116-1.04c.041-.236.04-.468-.005-.698l-.055-.782a2.068 2.068 0 0 1 .01-.48c.048-.15.036-.323-.037-.522a9.873 9.873 0 0 0-.004-1.309 8.566 8.566 0 0 0-.146-1.473c.045-.178.061-.368.047-.571a1.449 1.449 0 0 0-.086-.605c.005-.35-.02-.712-.076-1.086a7.437 7.437 0 0 0-.166-1.123l-.01-.13-.002-.044c-.025-1.19.194-1.803.657-1.835.174-.012.354.063.54.224Z"/>
  <path fill="#161616" d="M61.969 30.99c.252.272.358.541.318.806-.012.234-.127.474-.342.722a.865.865 0 0 1-.24.322.658.658 0 0 0-.198.276 12.94 12.94 0 0 1-.836.539c-.25.163-.5.34-.749.532a.684.684 0 0 1-.164.143c-.03.002-.07.034-.125.096a4.62 4.62 0 0 0-.937.327c-.284.107-.58.244-.888.411l-.047-.04-.084.05-1.52.106a4.58 4.58 0 0 1-1.442-.642 3.248 3.248 0 0 1-1.044-1.192l.043-.003a11.42 11.42 0 0 1-.27-1.378l-.098-1.39c.044-.206.03-.41-.042-.608-.073-.198-.028-.39.134-.576l-.006-.087c.07-.238.126-.49.165-.754.067-.295.08-.53.039-.7l-.087.005c-.006-.087-.053-.127-.14-.12a.668.668 0 0 0-.267-.07c-.231.017-.456.134-.674.353a8.56 8.56 0 0 1-.615.567c-.31.138-.576.287-.798.448-.221.161-.438.395-.65.7-2.414 1.682-4.283 3.879-5.607 6.59-.152.33-.32.633-.504.908a2.824 2.824 0 0 1-.74.663l-.652.045c-.868-.346-1.35-.778-1.444-1.296-.125-.544.075-1.227.6-2.049l-.031-.434c.27-.717.525-1.434.766-2.149l.81-2.151a4.95 4.95 0 0 0 .464-.862c.154-.302.26-.658.318-1.07a.47.47 0 0 0 .106-.356 21.734 21.734 0 0 0 1.454-2.939 30.292 30.292 0 0 0 1.093-3.087c.104-.182.168-.318.19-.406a3 3 0 0 0 .623-1.091c.116-.416.248-.818.396-1.206.39-1.075.796-2.136 1.218-3.184.45-1.05.796-2.136 1.038-3.259.077-.15.125-.285.146-.403l.144-.446c.068-.267.147-.592.237-.977.09-.384.21-.742.361-1.073.179-.361.39-.667.635-.917a1.5 1.5 0 0 1 .931-.414c.32-.022.601.06.847.246.335.21.528.472.58.789.078.285.055.592-.067.921-.073.209-.161.404-.265.586l-.261.63a7.321 7.321 0 0 0-.843 1.062c-.236.366-.41.785-.523 1.258-.456.556-.723 1.113-.8 1.671-.323.372-.537.852-.642 1.442-.3.282-.464.643-.491 1.081a1.502 1.502 0 0 0-.358.506 5.493 5.493 0 0 0-.137.533 13.36 13.36 0 0 0-.775 1.407 9.115 9.115 0 0 0-.552 1.479 9.202 9.202 0 0 0-.722 1.534c-.195.537-.391 1.06-.589 1.569a.47.47 0 0 0-.106.356c-.153.302-.293.588-.42.859-.128.242-.21.524-.246.846a1.16 1.16 0 0 0-.234.41 2.49 2.49 0 0 1-.1.443c-.138.097-.16.215-.062.353-.17.478-.327.94-.47 1.386a24.72 24.72 0 0 1-.518 1.346 36.292 36.292 0 0 0 3.548-2.954 20.388 20.388 0 0 1 3.653-2.7c.2-.072.4-.115.603-.129.2-.043.4-.1.599-.173.355.092.684.214.986.368.33.151.609.379.834.683a17.143 17.143 0 0 0 .344 2.42c-.058.004-.086.02-.084.05.002.029.033.056.093.08-.03.003-.057.02-.084.05 0 0 0 .015.003.044a5.167 5.167 0 0 0-.09.573c.011.174.025.377.042.608l.009.13a3.287 3.287 0 0 0-.101 1.055l.163 1.08c.127.573.427.901.898.984.058-.004.102.008.133.035l.174-.012c.29-.02.602-.144.935-.371a.296.296 0 0 1 .211-.102c.116-.008.23-.031.345-.068.36-.258.69-.528.99-.811.33-.285.674-.571 1.032-.858.22-.19.445-.293.677-.31.29-.02.574.092.853.334ZM22.572 39.417c-.428-.29-.699-.62-.812-.991-.113-.37-.113-.792-.001-1.266.038-.293.12-.561.25-.803a1.61 1.61 0 0 0 .196-.93c.08-.122.141-.272.187-.45.22-.19.38-.404.479-.644.098-.269.208-.567.33-.896l.392-.638c.13-.213.26-.44.39-.682l3.17-5.852a266.074 266.074 0 0 0 3.037-5.886 7.85 7.85 0 0 0 .744-1.23c.232-.424.45-.846.653-1.268a90.377 90.377 0 0 1 2.222-3.821c.232-.424.544-.955.936-1.593s.828-1.265 1.31-1.88a9.777 9.777 0 0 1 1.547-1.593c.55-.446 1.102-.688 1.652-.726.724-.051 1.269.245 1.634.89.297.502.345.979.144 1.43-.202.45-.613.813-1.234 1.09-.164.156-.302.253-.416.29l.08-.093-.13.01c-.347.024-.83.392-1.45 1.105a34.57 34.57 0 0 0-1.925 2.447c-.663.92-1.27 1.806-1.822 2.659-.523.851-.889 1.444-1.098 1.779a15.53 15.53 0 0 0-1.226 1.831 35.43 35.43 0 0 0-.999 1.947c-.238.336-.463.658-.675.963-.182.304-.361.651-.538 1.042-.296.34-.458.73-.486 1.168-.425.583-.79 1.19-1.095 1.823a38.248 38.248 0 0 0-.869 1.937c-.113.037-.163.157-.149.36a22.289 22.289 0 0 0-.99 2.076 22.512 22.512 0 0 0-.723 2.146 58.085 58.085 0 0 1 7.685-5.6 3.24 3.24 0 0 0 .898-.28c.28-.166.53-.329.751-.49.344-.082.675-.134.993-.156.346-.054.676-.12.99-.2l.348-.025c.753-.053 1.43.06 2.032.338.6.25 1.077.623 1.432 1.122.353.47.568 1.037.643 1.7.076.665-.02 1.37-.288 2.116-.1.24-.199.494-.296.763-.071.237-.17.491-.296.762-.214.277-.414.538-.6.784-.187.246-.387.507-.6.784a5.86 5.86 0 0 0-1.156.953 3.546 3.546 0 0 1-1.255.787.857.857 0 0 1-.289.238c-.023.089-.092.137-.208.145-.102.211-.255.31-.46.294a.88.88 0 0 0-.475.077l-.26.018a.824.824 0 0 1-.258.062 1.73 1.73 0 0 1-.794-.119c-.24-.1-.43-.319-.57-.658-.175-.425-.17-.76.017-1.005.184-.275.428-.54.73-.793.002.029.018.042.047.04.029-.002.042-.018.04-.046a.701.701 0 0 1 .298-.109.387.387 0 0 0-.17.056c-.028.031-.07.049-.128.053l1.086-.076c.193-.16.404-.261.634-.306a.946.946 0 0 0 .584-.39c.48-.209.885-.455 1.214-.74a3.33 3.33 0 0 0 .883-1.11c.216-.247.373-.49.473-.73.128-.242.21-.539.243-.89.342-1.363-.09-2.118-1.294-2.267l-.049-.084-.08.093a1.38 1.38 0 0 0-.708-.125 1.38 1.38 0 0 0-.683.223l-.093-.081-.081.093c-.06-.025-.206-.03-.438-.013-.231.016-.444.089-.639.219a7.32 7.32 0 0 0-.981.33c-.313.11-.607.276-.882.498-.26.019-.502.108-.724.27-.194.13-.387.288-.577.476-.141.068-.267.15-.376.245-.11.094-.22.175-.333.241a3.89 3.89 0 0 0-1.91 1.4c-.45.234-.86.612-1.23 1.133-.661.54-1.26 1.15-1.794 1.827a17.333 17.333 0 0 1-1.75 1.825 34.82 34.82 0 0 0-.618.523c-.221.16-.448.25-.68.266-.232.016-.47-.055-.713-.212ZM26.095 21.102c.08.314.015.625-.197.93-.184.275-.48.427-.885.455-1.295.207-2.576.413-3.842.618-1.238.203-2.46.419-3.666.649-.345.053-.605.086-.779.098a.472.472 0 0 0-.338.154c-.054.062-.075.18-.063.354.041.172.074.431.098.779.009.96.091 1.928.247 2.906.154.95.295 1.93.424 2.938.018.261.078.49.179.686.13.195.274.388.433.581a41.82 41.82 0 0 1 1.072 1.584c.359.556.563 1.182.611 1.877.081 1.158-.22 1.834-.906 2.027-.492.035-.879-.084-1.16-.355-.252-.273-.452-.638-.6-1.093a11.376 11.376 0 0 1-.568-1.88 23.57 23.57 0 0 1-.23-2.035 1.082 1.082 0 0 0-.139-.733 1.764 1.764 0 0 0-.483-.664c-1.55-1.347-3.205-2.337-4.966-2.97a1.384 1.384 0 0 0-.397-.06c-.174.013-.296.138-.367.375a960.934 960.934 0 0 1-3.115 7.9 632 632 0 0 0-3.118 7.855c-.22.597-.425 1.208-.614 1.832a11.75 11.75 0 0 0-.388 1.947c.035.493-.09.792-.373.9-.282.136-.61.217-.987.243a.926.926 0 0 1-.732-.473 1.28 1.28 0 0 1-.238-.9c.036-.322.105-.589.206-.8.073-.208.175-.419.305-.632 1.243-2.618 2.475-5.192 3.695-7.721a231.756 231.756 0 0 0 3.469-7.836c.17-.478.329-.91.476-1.3.175-.419.347-.867.518-1.345.116-.415.011-.67-.316-.763-.415-.117-.803-.25-1.163-.4-.33-.15-.69-.3-1.079-.447a4.24 4.24 0 0 1-.682-.39c-.186-.16-.29-.4-.312-.72-.2-.77.12-1.186.96-1.245l2.042-.143c.15.048.282.068.397.06l.348-.024c.521-.037.944-.24 1.267-.613.321-.4.588-.957.8-1.67a70.83 70.83 0 0 1 1.556-5.215c.578-1.728 1.141-3.455 1.69-5.181.13-.213.233-.41.308-.589.075-.18.206-.378.395-.595a.96.96 0 0 1 .674-.353c.145-.01.247-.002.307.023.265.04.448.157.549.354.099.168.156.367.172.599a26.863 26.863 0 0 1-.102 2.277c-.065.732-.1 1.49-.103 2.276-.068 1.11-.122 2.205-.163 3.285a59.38 59.38 0 0 0-.033 3.275c.032.464.208.684.527.662a.967.967 0 0 0 .3-.065 139.21 139.21 0 0 1 3.642-.996 50.298 50.298 0 0 0 3.679-1.087c.348-.024.7.01 1.055.101.354.063.588.294.703.693Zm-16.692 4.79c.058-.005.086-.021.084-.05-.002-.03.01-.06.037-.09l-.01-.13a.471.471 0 0 0-.356-.107c-.116.009-.286.064-.512.167.09.052.168.12.232.202.064.083.154.12.27.112a.666.666 0 0 0 .255-.105Zm6.334 3.79-.359-5.125c-.01-.145-.031-.245-.065-.301-.033-.056-.15-.077-.353-.063-.627.19-1.285.352-1.975.488-.662.104-1.306.25-1.933.44-.257.076-.406.232-.448.468-.044.207-.13.416-.261.63-.05.12-.058.221-.023.306l.186.162c.93.4 1.807.863 2.63 1.387a24.22 24.22 0 0 1 2.48 1.747c-.007-.087.034-.133.12-.14Zm-.64-14.75a1.617 1.617 0 0 1 .017-.395c.02-.117-.046-.244-.201-.378a163.448 163.448 0 0 0-1.813 4.665c-.59 1.555-1.192 3.139-1.807 4.753.662-.105 1.25-.233 1.763-.385.542-.154 1.101-.28 1.676-.38.261-.018.432-.073.513-.166.08-.093.112-.27.093-.53a71.459 71.459 0 0 1-.162-3.568l-.078-3.617Z"/>
</svg>
