<svg xmlns="http://www.w3.org/2000/svg" width="275" height="72" fill="none"><path fill="#000" d="M36.852 40.083c.144.57-.268 1.032-.696 1.328-.784.5-1.609 1.006-2.434 1.51l1.17 14.727c.07.661-1.318 1.77-1.662.885-.62-1.524-1.203-3.094-2.1-4.464-1.701-2.665-4.729-3.225-7.848-3.064-2.995.147-5.938.791-8.83 1.514a60.58 60.58 0 0 0-2.645.696A519.153 519.153 0 0 0 1.8 71.375c-.558 1.062-2.186.69-1.517-.51A385.285 385.285 0 0 1 6.55 59.29l3.063-5.467c-2.958.897-5.87 1.83-8.815 2.851-1.132.37-.947-1.448-.146-1.783a332.422 332.422 0 0 1 10.696-4.053 519.543 519.543 0 0 1 19.124-30.495c.43-.673 1.404-.566 1.495.303.589 6.798 1.095 13.604 1.605 20.452.747-.455 1.493-.91 2.199-1.36.387-.292.95-.1 1.081.346Zm-12.361-7.819c-3.69 5.868-7.335 11.772-10.805 17.742 6.2-2.283 12.39-4.649 18.153-7.89-.49-6.264-.94-12.533-1.472-18.793a652.492 652.492 0 0 0-5.876 8.941Zm8.167 20.432-.669-8.755c-3.874 2.122-7.953 3.89-12.046 5.532 3.403-.65 7.137-.917 10.067.699 1.108.594 1.956 1.509 2.648 2.524ZM45.102 42.185c3.127-.078 2.7 5.405 1.716 7.182-.53.934-2.055 1.93-3.07 1.033-.963-.819-.362-2.262.587-2.78.87-.468 1.205.333.944 1.03.037-.046.078-.05.161-.059.061-.215.122-.43.179-.688.113-.514.14-1.06.124-1.602-.02-.584-.167-1.99-.938-2.16-.812-.166-1.269 1.053-1.543 1.626-.912 2.062-1.294 4.402-1.477 6.638-.107.974-1.815 1.823-1.793.44-.021-5.77-.506-11.575-.903-17.347-.067-1.039 1.737-1.772 1.794-.44.245 3.53.532 7.055.69 10.552.634-1.53 1.737-3.362 3.529-3.425ZM75.123 39.907c.31-1.036 2.125-1.269 1.717.029-.781 2.508-2.027 4.981-4.012 6.78-1.302 1.14-3.217 2.01-4.897 1.142-1.818-.98-2.392-3.262-2.675-5.157a18.42 18.42 0 0 1-1.304 3.107c-1.025 1.781-3.803 4.792-5.629 2.14-.346-.508-.53-1.074-.674-1.644-.111-.658-.222-1.315-.337-2.014-.044-.414-.059-1.751-.337-2.014-.375-.38-1.18.71-1.476 1.075-.49.511-.893 1.056-1.287 1.683a12.96 12.96 0 0 0-1.609 4.184c-.141.643-1.639 1.511-1.752.436-.524-5.383-1.084-10.72-1.273-16.096-.026-1.043 1.779-1.776 1.835-.444.09 4.048.475 8.107.856 12.124a15.186 15.186 0 0 1 3.433-4.334c.923-.767 2.29-1.287 2.901.155.49 1.078.476 2.543.726 3.73.107.616.18 1.319.568 1.822.196.272.466.453.631.436.294.01.575-.103.917-.431.494-.47.847-1.093 1.158-1.712 1.213-2.386 1.803-5.125 2.24-7.722-.017-.166.016-.253.044-.381.164-.436.551-.727.923-.767.414-.043.766.129.827.708.015 1.337.117 2.707.26 4.072.175 1.655.383 3.64 1.598 4.851 1.077 1.1 2.402.584 3.44-.278 1.612-1.382 2.56-3.49 3.188-5.48Zm-8.557-6.629c.022 1.002-1.783 1.735-1.794.44.01-.713-.023-1.42-.014-2.132-.022-1.002 1.741-1.73 1.793-.44-.009.712.024 1.42.015 2.132Z"/><path fill="#000" d="M98.264 37.098c.764-1.085 1.961-.04 1.234 1-1.232 1.802-2.634 3.58-4.228 5.128-1.136 1.124-3.744 3.364-5.017 1.197-.568-1.028-.694-2.227-.853-3.34-.021-.207-.093-1.287-.35-1.343-.087-.033-.317.158-.429.295-1.593 1.548-1.859 3.793-3.008 5.587-.464.76-1.328 1.687-2.262 1.158-.842-.455-1.142-1.72-1.358-2.576-.185-.566-.665-3.945-1.294-3.963-.331.035-.823.923-.967 1.148a15.734 15.734 0 0 0-.888 1.891c-.63 1.572-1.039 3.247-1.067 4.965.017.165-.053.298-.122.43a1.134 1.134 0 0 1-.564.604.918.918 0 0 1-.662.07l-.082.008s-.005-.041-.046-.037c0 0-.041.004-.046-.037a.437.437 0 0 1-.246-.35l-.008-.083c-.296-2.814-.546-5.59-.966-8.39-.14-.947 1.583-2.049 1.788-.899.163 1.154.28 2.271.439 3.384.555-1.48 1.3-3.148 2.623-4.082.973-.688 2.066-.636 2.68.43.554.903.717 2.057.95 3.078.098.533.237 1.063.418 1.587.054.12.258.475.413.752.187-.606.536-1.27.769-1.838.237-.527.433-1.05.712-1.58.492-.889 1.07-1.745 1.787-2.489.984-.982 2.673-1.62 3.273.116.298.847.35 4.522 1.393 4.496.753.005 1.76-1.147 2.25-1.658 1.4-1.402 2.613-2.994 3.734-4.66Z"/><path fill="#000" d="M100.842 42.306c-1.728 1.06-3.404.232-3.373-1.862.035-2.053 1.112-4.133 2.686-5.47 1.343-1.144 3.873-1.745 4.756.295.113.281.065.62-.111.932.05.079.109.24.126.405.054.915.01 2.885.948 3.456.536.32 1.204-.085 1.674-.385 1.295-.806 2.401-2.219 2.965-3.616.466-1.137 2.053-.76 1.559.505-.826 2.094-2.809 4.31-4.89 5.199-.879.385-1.954.498-2.736-.173-.598-.522-.883-1.245-1.044-1.981-.686 1.034-1.504 1.998-2.56 2.695Zm-1.58-2.302c-.011 1.884 1.767.107 2.286-.533.703-.868 1.177-1.922 1.702-2.898-.004-.041.037-.045.037-.045-.69-1.392-2.22-.436-2.882.428-.662.864-1.132 1.96-1.143 3.048Z"/><path fill="#000" d="M133.631 33.672c.47-1.095 2.057-.718 1.521.55-.956 2.444-2.482 5.03-4.372 6.944-1.963 2.005-5.134 2.464-7.587 1.007-1.378-.776-2.22-2.026-2.749-3.476-.335-.801-.591-1.653-.889-2.5-.19-.607-.562-2.157-1.18-2.469-.659-.307-1.591 1.171-1.92 1.624-.55.727-.973 1.483-1.349 2.275-.754 1.585-1.15 3.384-1.257 5.152-.031.505-.529.934-.975 1.064-.438.214-.956.059-1.025-.603a32.12 32.12 0 0 0-1.27-6.517c-.266-.934 1.417-2.031 1.745-.895.261.893.522 1.786.701 2.687a15.913 15.913 0 0 1 2.016-3.892c.69-.993 1.68-2.31 2.845-2.767 1.119-.495 1.991.25 2.555 1.237 1.29 2.332 1.266 5.68 3.732 7.262 2.067 1.372 4.564.858 6.127-.979 1.369-1.692 2.542-3.655 3.331-5.704Z"/><path fill="#000" d="M152.88 31.564c.14.53-.268 1.032-.659 1.282-1.18.71-2.671 2.038-3.858 3.083-1.186 1.045-2.322 2.168-3.417 3.287a51.162 51.162 0 0 1-.165 8.383c-.299 3.127-.993 6.462-3.253 8.833-1.802 1.946-4.423 2.473-6.131.143-1.071-1.435-1.06-3.319-.65-4.993 1.176-4.725 4.796-8.87 7.985-12.342.116-.096.227-.233.379-.375l-.174-1.654a25.358 25.358 0 0 0-.27-1.77c-.076-.327-.195-1.068-.572-1.07-.339-.048-.923.767-1.112.954-1.313 1.434-2.517 3.109-3.925 4.428-1.067.99-2.784 1.757-3.999.546-1.825-1.858-.155-5.463.687-7.392.512-1.1 2.099-.723 1.517.51-.572 1.314-1.354 3.028-1.161 4.472.098.533.325 1.095.958 1.154.546.026 1.069-.573 1.406-.943.864-.927 1.678-1.933 2.497-2.898.975-1.064 3.178-3.973 4.776-2.3.89.91.966 2.826 1.068 4.196 2.107-2.23 4.43-4.398 7.029-5.926.396-.209.914-.054 1.044.392Zm-9.63 10.215c-.026-.248-.048-.455-.033-.708a.327.327 0 0 0-.148.183c-1.613 1.76-3.093 3.588-4.386 5.606-1.043 1.615-2.064 3.438-2.324 5.347-.228 1.405.102 2.96 1.36 3.79 2.603 1.691 4.484-3.484 4.848-5.195.656-2.913.748-6.018.683-9.023Z"/><path fill="#000" d="M167.264 30.136c.511-1.1 2.098-.723 1.517.51-1.13 2.377-2.548 5.203-4.816 6.696-1.212.797-2.747.916-3.75-.275-.77-.965-1.273-2.167-1.61-3.386-.51.723-1.019 1.446-1.578 2.09-.889 1.097-2.032 2.556-3.516 2.754-3.093.409-2.722-4.817-2.069-6.559.163-.435.571-.938 1.117-.912.505.03.764.506.6.94-.322.913-.47 1.89-.366 2.884.15 1.03.612 2.236 1.724 1.282 1.578-1.295 2.834-3.267 3.777-5.04.279-.53 1.504-1.203 1.65-.215.235 1.44.635 2.861 1.394 4.12.355.59.797 1.213 1.569 1.006.608-.19 1.052-.738 1.422-1.195 1.226-1.467 2.112-2.983 2.935-4.7ZM229.107 11.42c-.588 3.156-2.432 5.902-4.576 8.177-3 3.285-6.52 5.997-10.144 8.512.083-.009.17.024.252.015 2.475.074 4.414 1.418 5.324 3.707 1.135 2.85.928 6.05 2.179 8.805.933 2.119 3.158 4.186 5.628 3.424 1.215-.379.877 1.58-.098 1.85-2.186.69-4.384-.333-5.853-1.977-1.76-2.032-2.204-4.662-2.639-7.21-.443-2.63-.902-5.803-3.905-6.533-2.751-.714-5.342.897-7.623 2.266-.392.25-.951.1-1.082-.347-.139-.529.268-1.032.697-1.328 6.043-3.772 12.481-7.753 17.079-13.34 1.888-2.331 3.351-5.12 3.107-8.232-.21-3.198-2.46-5.513-5.375-6.587-6.172-2.237-12.469 1.102-17.358 4.711-9.086 6.644-16.527 15.415-21.706 25.413 5.167-.962 10.793-1.93 15.923-.461 2.412.666 4.516 1.993 5.909 4.105.05.078.104.198.154.276-.475-6.516-.988-12.988-1.505-19.5-.063-.997 1.696-1.768 1.794-.44a5783.68 5783.68 0 0 0 2.148 27.213c.046.832-1.572 1.755-1.813.65-.5-2.372-1.009-4.829-2.356-6.904-1.334-1.951-3.334-3.08-5.572-3.68-5.282-1.327-11.002-.057-16.256.872-.736.161-1.021-.562-.71-1.18a75.268 75.268 0 0 1 12.438-18.122c4.428-4.816 9.552-9.37 15.27-12.648 5.368-3.033 13.18-4.69 18.189.011 2.32 2.182 3.036 5.411 2.48 8.481Z"/><path fill="#000" d="M228.096 28.926c-1.728 1.06-3.404.232-3.373-1.862.035-2.053 1.113-4.133 2.687-5.47 1.343-1.145 3.872-1.745 4.756.295.113.281.065.62-.112.932.05.079.109.24.127.405.054.915.01 2.885.948 3.456.535.32 1.204-.085 1.674-.385 1.295-.806 2.401-2.219 2.965-3.617.466-1.136 2.052-.759 1.558.506-.825 2.094-2.808 4.31-4.889 5.199-.88.385-1.955.498-2.736-.173-.599-.522-.884-1.245-1.044-1.981-.686 1.034-1.505 1.998-2.561 2.695Zm-1.579-2.302c-.011 1.884 1.767.107 2.285-.533.703-.869 1.178-1.922 1.703-2.898-.005-.041.037-.046.037-.046-.69-1.39-2.22-.435-2.882.429-.662.864-1.132 1.96-1.143 3.048Z"/><path fill="#000" d="M260.885 20.292c.471-1.095 2.057-.719 1.521.55-.955 2.444-2.482 5.03-4.371 6.944-1.964 2.005-5.135 2.464-7.588 1.007-1.377-.776-2.219-2.026-2.748-3.476-.335-.801-.592-1.653-.89-2.5-.189-.607-.561-2.157-1.179-2.469-.66-.307-1.591 1.171-1.92 1.624-.551.727-.973 1.483-1.35 2.275-.753 1.585-1.15 3.384-1.257 5.152-.03.505-.529.934-.975 1.064-.437.214-.955.059-1.025-.603a32.051 32.051 0 0 0-1.27-6.517c-.265-.934 1.417-2.031 1.746-.895.261.893.522 1.786.7 2.687.486-1.347 1.141-2.671 2.016-3.893.69-.992 1.681-2.31 2.845-2.767 1.119-.494 1.992.251 2.556 1.238 1.29 2.332 1.265 5.68 3.731 7.262 2.068 1.372 4.564.858 6.127-.98 1.37-1.69 2.543-3.655 3.331-5.703Z"/><path fill="#000" d="M263.676 25.185c-1.728 1.06-3.404.232-3.373-1.862.035-2.053 1.113-4.133 2.686-5.47 1.344-1.145 3.873-1.745 4.756.295.113.281.065.62-.111.932.05.079.109.24.126.405.054.915.011 2.885.949 3.456.535.32 1.203-.085 1.673-.385 1.296-.806 2.401-2.219 2.965-3.616.466-1.137 2.053-.76 1.559.505-.826 2.094-2.809 4.31-4.89 5.199-.879.385-1.954.498-2.735-.173-.599-.522-.884-1.245-1.045-1.981-.686 1.034-1.504 1.998-2.56 2.695Zm-1.58-2.302c-.011 1.884 1.768.107 2.286-.533.703-.869 1.178-1.922 1.702-2.898-.004-.041.037-.046.037-.046-.69-1.39-2.22-.435-2.882.429-.661.864-1.132 1.96-1.143 3.048Z"/></svg>